<svg width="20" height="22" viewBox="0 0 20 22" fill="none" xmlns="http://www.w3.org/2000/svg">
<path fill-rule="evenodd" clip-rule="evenodd" d="M9.97676 9.20929C8.42266 9.20929 7.16281 10.4691 7.16281 12.0232C7.16281 13.3113 8.02823 14.3972 9.20932 14.7313V18.1628C9.20932 18.5866 9.55292 18.9302 9.97676 18.9302C10.4006 18.9302 10.7442 18.5866 10.7442 18.1628V14.7313C11.9253 14.3972 12.7907 13.3113 12.7907 12.0232C12.7907 10.4691 11.5309 9.20929 9.97676 9.20929ZM8.6977 12.0232C8.6977 11.3168 9.27035 10.7442 9.97676 10.7442C10.6832 10.7442 11.2558 11.3168 11.2558 12.0232C11.2558 12.7296 10.6832 13.3023 9.97676 13.3023C9.27035 13.3023 8.6977 12.7296 8.6977 12.0232Z" fill="#141414"/>
<path fill-rule="evenodd" clip-rule="evenodd" d="M9.97676 0C6.72728 0 4.09305 2.63423 4.09305 5.88371V6.41868L4.06558 6.4275C2.27435 7.0095 0.870008 8.41385 0.288003 10.2051C-0.000425715 11.0928 -0.000258107 12.1582 1.66566e-05 13.9041V14.2353C-0.000258107 15.9813 -0.000425715 17.0467 0.288003 17.9344C0.870007 19.7256 2.27435 21.13 4.06558 21.712C4.95327 22.0004 6.01869 22.0003 7.76463 22H12.1889C13.9348 22.0003 15.0003 22.0004 15.8879 21.712C17.6792 21.13 19.0835 19.7256 19.6655 17.9344C19.954 17.0467 19.9538 15.9813 19.9535 14.2354V13.9041C19.9538 12.1582 19.954 11.0928 19.6655 10.2051C19.0835 8.41385 17.6792 7.0095 15.8879 6.4275L15.8605 6.41867V5.88371C15.8605 2.63423 13.2262 0 9.97676 0ZM7.84432 6.13952C6.94468 6.13949 6.22664 6.13946 5.62793 6.17336V5.88371C5.62793 3.48192 7.57497 1.53488 9.97676 1.53488C12.3786 1.53488 14.3256 3.48192 14.3256 5.88371V6.17336C13.7269 6.13946 13.0088 6.13949 12.1092 6.13952H7.84432ZM4.98798 7.7801C5.59948 7.67709 6.42417 7.67441 7.93025 7.67441H12.0233C13.5294 7.67441 14.354 7.67709 14.9655 7.7801C15.1346 7.80859 15.2804 7.84398 15.4136 7.88725C16.7376 8.31743 17.7756 9.35543 18.2058 10.6794C18.4091 11.3053 18.4186 12.1054 18.4186 14.0697C18.4186 16.034 18.4091 16.8342 18.2058 17.4601C17.7756 18.7841 16.7376 19.8221 15.4136 20.2522C14.7877 20.4556 13.9876 20.4651 12.0233 20.4651H7.93025C5.96596 20.4651 5.16582 20.4556 4.53988 20.2522C3.21593 19.8221 2.17794 18.7841 1.74776 17.4601C1.54438 16.8342 1.53492 16.034 1.53492 14.0697C1.53492 12.1055 1.54438 11.3053 1.74776 10.6794C2.17794 9.35543 3.21593 8.31743 4.53988 7.88725C4.67308 7.84398 4.81889 7.80859 4.98798 7.7801Z" fill="#141414"/>
</svg>
