<svg width="22" height="22" viewBox="0 0 22 22" fill="none" xmlns="http://www.w3.org/2000/svg">
<path fill-rule="evenodd" clip-rule="evenodd" d="M7.93023 8.18605C6.37613 8.18605 5.11628 9.4459 5.11628 11C5.11628 12.5541 6.37613 13.814 7.93023 13.814C9.21828 13.814 10.3042 12.9485 10.6383 11.7674H12.5233C12.5799 12.0448 12.5435 12.3365 12.4141 12.5953L12.3601 12.7033C12.1705 13.0824 12.3242 13.5434 12.7033 13.7329C13.0824 13.9225 13.5434 13.7688 13.7329 13.3897L13.7869 13.2817C14.0242 12.8072 14.1194 12.2823 14.0724 11.7674H15.5931C15.6497 12.0448 15.6133 12.3365 15.4839 12.5953L15.4299 12.7033C15.2403 13.0824 15.394 13.5434 15.7731 13.7329C16.1522 13.9225 16.6131 13.7688 16.8027 13.3897L16.8567 13.2817C17.2528 12.4895 17.2528 11.557 16.8567 10.7648C16.6936 10.4386 16.3602 10.2326 15.9955 10.2326H13.062C13.0513 10.2323 13.0406 10.2323 13.0299 10.2326L10.6383 10.2326C10.3042 9.05146 9.21828 8.18605 7.93023 8.18605ZM6.65116 11C6.65116 10.2936 7.22382 9.72093 7.93023 9.72093C8.63664 9.72093 9.2093 10.2936 9.2093 11C9.2093 11.7064 8.63664 12.2791 7.93023 12.2791C7.22382 12.2791 6.65116 11.7064 6.65116 11Z" fill="#141414"/>
<path fill-rule="evenodd" clip-rule="evenodd" d="M11 0C4.92487 0 0 4.92487 0 11C0 17.0751 4.92487 22 11 22C17.0751 22 22 17.0751 22 11C22 4.92487 17.0751 0 11 0ZM1.53488 11C1.53488 5.77256 5.77256 1.53488 11 1.53488C16.2274 1.53488 20.4651 5.77256 20.4651 11C20.4651 16.2274 16.2274 20.4651 11 20.4651C5.77256 20.4651 1.53488 16.2274 1.53488 11Z" fill="#141414"/>
</svg>
