<svg width="22" height="24" viewBox="0 0 22 24" fill="none" xmlns="http://www.w3.org/2000/svg">
<path d="M11.2978 18.405L10.8402 17.5158L10.8402 17.5158L11.2978 18.405ZM10.5021 18.405L10.0445 19.2942H10.0445L10.5021 18.405ZM17.6 8.7C17.6 11.1166 16.3593 13.1005 14.8329 14.6278C13.3079 16.1536 11.5841 17.133 10.8402 17.5158L11.7554 19.2942C12.5884 18.8655 14.5157 17.7744 16.2475 16.0416C17.978 14.3102 19.6 11.8474 19.6 8.7H17.6ZM10.9 2C14.6003 2 17.6 4.99969 17.6 8.7H19.6C19.6 3.89512 15.7048 0 10.9 0V2ZM4.19995 8.7C4.19995 4.99969 7.19964 2 10.9 2V0C6.09507 0 2.19995 3.89512 2.19995 8.7H4.19995ZM10.9597 17.5158C10.2158 17.133 8.49199 16.1536 6.96697 14.6278C5.4406 13.1005 4.19995 11.1166 4.19995 8.7H2.19995C2.19995 11.8474 3.82191 14.3102 5.55237 16.0416C7.28418 17.7744 9.21145 18.8655 10.0445 19.2942L10.9597 17.5158ZM10.8402 17.5158C10.8527 17.5094 10.8737 17.5028 10.9 17.5028C10.9262 17.5028 10.9472 17.5094 10.9597 17.5158L10.0445 19.2942C10.5849 19.5723 11.215 19.5723 11.7554 19.2942L10.8402 17.5158ZM13.2 8.69982C13.2 9.97008 12.1702 10.9998 10.9 10.9998V12.9998C13.2748 12.9998 15.2 11.0746 15.2 8.69982H13.2ZM10.9 6.39982C12.1702 6.39982 13.2 7.42957 13.2 8.69982H15.2C15.2 6.325 13.2748 4.39982 10.9 4.39982V6.39982ZM8.59996 8.69982C8.59996 7.42957 9.6297 6.39982 10.9 6.39982V4.39982C8.52513 4.39982 6.59996 6.325 6.59996 8.69982H8.59996ZM10.9 10.9998C9.6297 10.9998 8.59996 9.97008 8.59996 8.69982H6.59996C6.59996 11.0746 8.52513 12.9998 10.9 12.9998V10.9998Z" fill="#7C7C7C"/>
<path d="M19.4737 18.0499C20.3426 18.5516 20.8 19.1206 20.8 19.6999C20.8 20.2792 20.3426 20.8482 19.4737 21.3499C18.6047 21.8516 17.355 22.2682 15.85 22.5578C14.345 22.8474 12.6378 22.9999 10.9 22.9999C9.16219 22.9999 7.45499 22.8474 5.95 22.5578C4.44501 22.2682 3.19526 21.8516 2.32635 21.3499C1.45744 20.8482 1 20.2792 1 19.6999C1 19.1206 1.45744 18.5516 2.32635 18.0499" stroke="#7C7C7C" stroke-width="2" stroke-linecap="round"/>
</svg>
