<svg width="22" height="22" viewBox="0 0 22 22" fill="none" xmlns="http://www.w3.org/2000/svg">
<circle cx="10.9997" cy="8.8" r="3.3" stroke="#7C7C7C" stroke-width="2" stroke-linecap="round"/>
<rect x="1" y="1" width="20" height="20" rx="4" stroke="#7C7C7C" stroke-width="2"/>
<path fill-rule="evenodd" clip-rule="evenodd" d="M10.7221 15.5C9.0907 15.5 7.48921 15.9477 6.16559 16.7941C4.84072 17.6412 3.85042 18.8541 3.39502 20.2704L5.29902 20.8826C5.59569 19.9599 6.26258 19.106 7.24302 18.479C8.2247 17.8513 9.44779 17.5 10.7221 17.5C11.9965 17.5 13.2196 17.8513 14.2012 18.479C15.1817 19.106 15.8486 19.9599 16.1452 20.8826L18.0492 20.2704C17.5938 18.8541 16.6035 17.6412 15.2787 16.7941C13.955 15.9477 12.3536 15.5 10.7221 15.5Z" fill="#7C7C7C"/>
</svg>
