<svg width="25" height="25" viewBox="0 0 25 25" fill="none" xmlns="http://www.w3.org/2000/svg">
<circle cx="12.5" cy="12.5" r="12" stroke="#141414"/>
<path d="M18.8808 9.84353C19.0626 9.62534 19.0331 9.30105 18.8149 9.11921C18.5967 8.93738 18.2725 8.96686 18.0906 9.18506L14.3942 13.6208C13.6516 14.5118 13.1293 15.1367 12.6763 15.5458C12.2338 15.9454 11.9284 16.0724 11.6286 16.0724C11.3287 16.0724 11.0234 15.9454 10.5809 15.5458C10.1278 15.1367 9.6055 14.5118 8.86298 13.6208L7.90938 12.4765C7.72755 12.2583 7.40326 12.2288 7.18506 12.4106C6.96686 12.5925 6.93738 12.9168 7.11921 13.135L8.09928 14.311C8.80918 15.1629 9.37769 15.8452 9.89154 16.3092C10.4223 16.7885 10.9649 17.1009 11.6286 17.1009C12.2923 17.1009 12.8348 16.7885 13.3656 16.3092C13.8794 15.8452 14.448 15.163 15.1578 14.3111L18.8808 9.84353Z" fill="#141414"/>
</svg>
