<svg width="16" height="16" viewBox="0 0 16 16" fill="none" xmlns="http://www.w3.org/2000/svg">
<path d="M15.2804 1.28033C15.5732 0.987437 15.5732 0.512563 15.2804 0.21967C14.9875 -0.0732233 14.5126 -0.0732233 14.2197 0.21967L7.75001 6.68935L1.28033 0.219673C0.987437 -0.0732203 0.512563 -0.0732203 0.21967 0.219673C-0.0732233 0.512566 -0.0732233 0.98744 0.21967 1.28033L6.68935 7.75001L0.219697 14.2197C-0.0731964 14.5126 -0.0731964 14.9874 0.219697 15.2803C0.51259 15.5732 0.987464 15.5732 1.28036 15.2803L7.75001 8.81067L14.2197 15.2803C14.5126 15.5732 14.9874 15.5732 15.2803 15.2803C15.5732 14.9874 15.5732 14.5126 15.2803 14.2197L8.81067 7.75002L15.2804 1.28033Z" fill="black"/>
</svg>
