<svg width="13" height="13" viewBox="0 0 13 13" fill="none" xmlns="http://www.w3.org/2000/svg">
<path d="M12.8158 1.07383C13.0614 0.828173 13.0614 0.429892 12.8158 0.184239C12.5701 -0.0614131 12.1718 -0.0614131 11.9262 0.184239L6.5 5.61043L1.07382 0.184242C0.828171 -0.0614106 0.429891 -0.0614106 0.184239 0.184242C-0.061413 0.429894 -0.061413 0.828175 0.184239 1.07383L5.61041 6.50001L0.184262 11.9262C-0.0613904 12.1718 -0.0613904 12.5701 0.184262 12.8158C0.429914 13.0614 0.828194 13.0614 1.07385 12.8158L6.5 7.3896L11.9262 12.8158C12.1718 13.0614 12.5701 13.0614 12.8157 12.8158C13.0614 12.5701 13.0614 12.1718 12.8157 11.9262L7.38958 6.50001L12.8158 1.07383Z" fill="white"/>
</svg>
