<svg width="21" height="20" viewBox="0 0 21 20" fill="none" xmlns="http://www.w3.org/2000/svg">
<path fill-rule="evenodd" clip-rule="evenodd" d="M19.1413 1.72879C17.8446 0.340239 16.4011 -0.0893246 15.0454 0.0148846C13.7265 0.116276 12.5386 0.717066 11.6711 1.29494C10.9869 1.75066 10.0131 1.75066 9.3289 1.29495C8.46134 0.717074 7.27351 0.116289 5.95453 0.0149003C4.5989 -0.0893067 3.15537 0.340254 1.85867 1.72879C0.327819 3.36807 -0.152469 5.39169 0.0403954 7.43863C0.231037 9.46198 1.07625 11.5188 2.20354 13.3414C3.33383 15.1688 4.77767 16.8095 6.22616 18.0008C7.6428 19.1659 9.18415 20 10.5 20C11.8159 20 13.3572 19.1659 14.7739 18.0008C16.2224 16.8095 17.6662 15.1688 18.7965 13.3414C19.9238 11.5188 20.769 9.46198 20.9596 7.43863C21.1525 5.39168 20.6722 3.36806 19.1413 1.72879ZM12.4559 2.59407C13.2231 2.08305 14.1727 1.62456 15.1524 1.54924C16.0955 1.47675 17.112 1.75306 18.0952 2.80594C19.2705 4.06444 19.6596 5.61013 19.5016 7.28716C19.3414 8.98778 18.6154 10.8096 17.5677 12.5034C16.5231 14.1924 15.1881 15.7059 13.8704 16.7897C12.5209 17.8996 11.3087 18.4615 10.5 18.4615C9.69137 18.4615 8.47915 17.8996 7.1296 16.7897C5.81191 15.7059 4.47694 14.1924 3.43226 12.5034C2.38457 10.8096 1.65864 8.98778 1.49841 7.28716C1.3404 5.61014 1.72951 4.06445 2.90477 2.80594C3.888 1.75308 4.90448 1.47676 5.84756 1.54926C6.82731 1.62457 7.7769 2.08306 8.54409 2.59408C9.70734 3.3689 11.2926 3.3689 12.4559 2.59407Z" fill="black"/>
</svg>
