<svg width="21" height="20" viewBox="0 0 21 20" fill="none" xmlns="http://www.w3.org/2000/svg">
<path d="M15.1141 1.05071C14.0131 1.13535 12.9796 1.64448 12.1787 2.17794C11.1833 2.84095 9.81665 2.84095 8.82128 2.17794C8.0204 1.64449 6.98687 1.13536 5.88589 1.05073C4.7928 0.966705 3.62729 1.29968 2.53934 2.46468C1.24783 3.84767 0.831988 5.54436 1.00062 7.33406C1.17028 9.13479 1.93337 11.0306 3.00703 12.7664C4.0793 14.5 5.45007 16.0557 6.81199 17.1758C7.51001 17.7499 8.18321 18.1913 8.79856 18.4913C9.4071 18.7879 9.99039 18.9615 10.5 18.9615C11.0096 18.9615 11.5929 18.7879 12.2015 18.4913C12.8168 18.1913 13.49 17.7499 14.188 17.1758C15.5499 16.0557 16.9207 14.5 17.993 12.7664C19.0666 11.0306 19.8297 9.13479 19.9994 7.33406C20.168 5.54436 19.7522 3.84766 18.4607 2.46468C17.3727 1.29967 16.2072 0.966687 15.1141 1.05071ZM15.0838 0.513414C16.2896 0.420723 17.584 0.793748 18.7759 2.07005C20.1902 3.58454 20.6441 5.45696 20.4618 7.39173C20.2806 9.31495 19.4726 11.2978 18.3712 13.0784C17.2685 14.8612 15.8605 16.4597 14.4563 17.6147C13.0604 18.7627 11.6346 19.5 10.5 19.5C9.36543 19.5 7.93963 18.7627 6.54377 17.6147C5.1395 16.4597 3.73147 14.8612 2.62877 13.0784C1.52744 11.2978 0.719398 9.31495 0.538191 7.39173C0.355896 5.45697 0.809786 3.58454 2.2241 2.07006C3.41598 0.793763 4.71042 0.420741 5.91621 0.51343C7.11396 0.6055 8.21786 1.15566 9.05172 1.71108C9.90376 2.27861 11.0962 2.27861 11.9482 1.71108C12.7821 1.15565 13.886 0.605486 15.0838 0.513414Z" fill="black" stroke="#009800" stroke-linecap="round"/>
<ellipse cx="6" cy="7" rx="5" ry="6" fill="#009800"/>
<ellipse cx="15" cy="7" rx="5" ry="6" fill="#009800"/>
<ellipse cx="11" cy="13" rx="5" ry="6" fill="#009800"/>
<ellipse cx="14" cy="10" rx="5" ry="6" fill="#009800"/>
<ellipse cx="8" cy="11" rx="5" ry="6" fill="#009800"/>
<ellipse cx="12" cy="8" rx="5" ry="6" fill="#009800"/>
</svg>
