<svg width="36" height="49" viewBox="0 0 36 49" fill="none" xmlns="http://www.w3.org/2000/svg">
<path d="M17.7291 48.8615C17.6185 48.593 15.3216 46.3468 13.6767 44.3058C3.93173 31.3674 -6.93319 19.3457 5.75365 4.73634C11.3711 -0.690876 18.2978 -1.00048 25.4187 1.52925C45.4694 13.1316 30.9525 32.0586 21.4205 44.5011L17.7291 48.8615ZM23.7605 29.029C37.1342 19.4647 26.7948 1.04741 12.1011 7.17C7.81038 9.45784 5.68139 13.4386 5.60682 18.1339C5.40194 22.7016 7.82769 26.5211 11.6718 28.8608C14.4278 30.3608 15.6394 30.6318 18.7599 30.4458C20.7824 30.3253 21.9479 29.9951 23.7605 29.029Z" fill="#009800"/>
<path d="M15.0452 31.1813C11.6724 30.4401 8.72109 28.3537 6.83549 25.3776C4.9499 22.4015 4.28318 18.7774 4.98087 15.2964C5.67856 11.8154 7.684 8.7603 10.5594 6.79794C13.4348 4.83558 16.9466 4.12537 20.3283 4.82235C23.7099 5.51933 26.6867 7.56689 28.6089 10.5181C30.531 13.4692 31.2424 17.0843 30.5876 20.5741C29.9329 24.064 27.9653 27.1451 25.1143 29.145C22.2634 31.1449 18.7606 31.901 15.3706 31.2484" fill="#006D00"/>
<path d="M15.7914 26.5109C13.5609 26.0249 11.6091 24.6569 10.3621 22.7055C9.11515 20.7542 8.67423 18.378 9.13562 16.0956C9.59702 13.8132 10.9233 11.81 12.8248 10.5233C14.7264 9.23666 17.0489 8.77099 19.2852 9.22798C21.5216 9.68497 23.4902 11.0275 24.7614 12.9625C26.0325 14.8975 26.503 17.2678 26.07 19.556C25.637 21.8442 24.3358 23.8645 22.4504 25.1757C20.565 26.487 18.2485 26.9828 16.0066 26.5549" fill="white"/>
</svg>
