<svg width="8" height="16" viewBox="0 0 8 16" fill="none" xmlns="http://www.w3.org/2000/svg">
<path d="M0.308913 14.2154C-0.100405 14.6211 -0.103353 15.2818 0.302329 15.6911C0.70801 16.1004 1.3687 16.1033 1.77802 15.6977L4.27504 13.2228C5.21552 12.2907 5.98418 11.5289 6.5293 10.8501C7.09616 10.1443 7.5065 9.42786 7.61611 8.56788C7.66418 8.1908 7.66418 7.8092 7.61611 7.43212C7.5065 6.57214 7.09616 5.8557 6.5293 5.14986C5.98418 4.47108 5.21553 3.70929 4.27505 2.7772L1.77802 0.302342C1.3687 -0.103338 0.708011 -0.100391 0.30233 0.308927C-0.103352 0.718245 -0.100404 1.37893 0.308913 1.78461L2.76174 4.21565C3.75721 5.20228 4.44006 5.88129 4.90212 6.45663C5.35095 7.01551 5.50493 7.37449 5.54591 7.69599C5.57164 7.89787 5.57164 8.10213 5.54591 8.30401C5.50493 8.62551 5.35095 8.98449 4.90212 9.54337C4.44006 10.1187 3.75721 10.7977 2.76174 11.7843L0.308913 14.2154Z" fill="#141414"/>
</svg>
