<svg width="24" height="23" viewBox="0 0 24 23" fill="none" xmlns="http://www.w3.org/2000/svg">
<path fill-rule="evenodd" clip-rule="evenodd" d="M10.1739 0C4.55502 0 0 4.36522 0 9.75C0 15.1348 4.55502 19.5 10.1739 19.5C15.7928 19.5 20.3478 15.1348 20.3478 9.75C20.3478 4.36522 15.7928 0 10.1739 0ZM1.56522 9.75C1.56522 5.19365 5.41946 1.5 10.1739 1.5C14.9284 1.5 18.7826 5.19365 18.7826 9.75C18.7826 14.3063 14.9284 18 10.1739 18C5.41946 18 1.56522 14.3063 1.56522 9.75Z" fill="black"/>
<path d="M19.0752 17.2198C18.7696 16.9269 18.2741 16.9269 17.9684 17.2198C17.6628 17.5126 17.6628 17.9875 17.9684 18.2804L22.1422 22.2804C22.4478 22.5733 22.9434 22.5733 23.249 22.2804C23.5546 21.9875 23.5546 21.5126 23.249 21.2197L19.0752 17.2198Z" fill="black"/>
</svg>
