<svg width="22" height="22" viewBox="0 0 22 22" fill="none" xmlns="http://www.w3.org/2000/svg">
<path fill-rule="evenodd" clip-rule="evenodd" d="M10.75 3C8.12665 3 6 5.12665 6 7.75C6 10.3734 8.12665 12.5 10.75 12.5C13.3734 12.5 15.5 10.3734 15.5 7.75C15.5 5.12665 13.3734 3 10.75 3ZM7.5 7.75C7.5 5.95507 8.95507 4.5 10.75 4.5C12.5449 4.5 14 5.95507 14 7.75C14 9.54493 12.5449 11 10.75 11C8.95507 11 7.5 9.54493 7.5 7.75Z" fill="white"/>
<path fill-rule="evenodd" clip-rule="evenodd" d="M10.75 0C4.81294 0 0 4.81294 0 10.75C0 13.7985 1.26989 16.5516 3.30751 18.5071C5.23833 20.36 7.86182 21.5 10.75 21.5C13.6382 21.5 16.2617 20.36 18.1925 18.5071C20.2301 16.5516 21.5 13.7985 21.5 10.75C21.5 4.81294 16.6871 0 10.75 0ZM1.5 10.75C1.5 5.64137 5.64137 1.5 10.75 1.5C15.8586 1.5 20 5.64137 20 10.75C20 12.9448 19.2363 14.9603 17.9589 16.5466C17.1649 15.0328 15.5786 14 13.75 14H7.75C5.92143 14 4.33513 15.0328 3.54109 16.5466C2.26372 14.9603 1.5 12.9448 1.5 10.75ZM13.75 15.5C15.1839 15.5 16.4021 16.4292 16.8331 17.7185C15.2065 19.1398 13.0794 20 10.75 20C8.42062 20 6.29352 19.1398 4.66687 17.7185C5.09791 16.4292 6.31613 15.5 7.75 15.5H13.75Z" fill="white"/>
</svg>
