<svg width="17" height="22" viewBox="0 0 17 22" fill="none" xmlns="http://www.w3.org/2000/svg">
<path d="M7.58537 0C4.30427 0 1.76565 2.87571 2.17262 6.13147L2.2493 6.74492C2.3615 7.64256 2.03361 8.53918 1.36879 9.15267C-0.00882858 10.4239 -0.391573 12.4473 0.426539 14.1339L0.526406 14.3398C1.28897 15.9119 2.88268 16.9101 4.62996 16.9101H12.5737C14.0808 16.9101 15.4835 16.1402 16.2927 14.8687C17.435 13.0738 17.1325 10.7193 15.5735 9.27154L15.5311 9.23215C15.2088 8.93277 14.9604 8.57174 14.796 8.17664C14.7288 8.01527 14.6757 7.84824 14.6373 7.67746C14.5495 7.28697 14.1617 7.04162 13.7712 7.12947C13.3807 7.21731 13.1354 7.60508 13.2232 7.99557C13.28 8.24805 13.3585 8.49495 13.4578 8.73347C13.7008 9.31759 14.0682 9.85164 14.5448 10.2942L14.5872 10.3336C15.6336 11.3054 15.8366 12.8857 15.0699 14.0904C14.5268 14.9439 13.5853 15.4607 12.5737 15.4607H4.62996C3.43797 15.4607 2.35074 14.7797 1.83052 13.7072L1.73065 13.5013C1.19138 12.3896 1.44367 11.0558 2.35175 10.2179C3.36033 9.28717 3.85777 7.92693 3.68754 6.56514L3.61086 5.95169C3.31203 3.56103 5.17611 1.44944 7.58537 1.44944H9.23088C9.94327 1.44944 10.6052 1.63292 11.1783 1.95205C11.528 2.14678 11.9693 2.02116 12.1641 1.67147C12.3588 1.32178 12.2332 0.880441 11.8835 0.685714C11.1002 0.249515 10.1962 0 9.23088 0H7.58537Z" fill="#FAFAFA"/>
<path d="M6.31298 18.6494C6.07283 18.3292 5.61857 18.2643 5.29837 18.5045C4.97817 18.7446 4.91328 19.1989 5.15343 19.5191L5.44332 19.9056C7.0377 22.0315 10.2265 22.0315 11.8208 19.9056L12.1107 19.5191C12.3509 19.1989 12.286 18.7446 11.9658 18.5045C11.6456 18.2643 11.1913 18.3292 10.9512 18.6494L10.6613 19.036C9.64669 20.3888 7.61747 20.3888 6.60287 19.036L6.31298 18.6494Z" fill="#FAFAFA"/>
<path d="M15.3962 4.58989C15.3962 5.65722 14.5309 6.52247 13.4636 6.52247C12.3963 6.52247 11.531 5.65722 11.531 4.58989C11.531 3.52255 12.3963 2.6573 13.4636 2.6573C14.5309 2.6573 15.3962 3.52255 15.3962 4.58989Z" fill="#FAFAFA"/>
</svg>
