<svg width="26" height="24" viewBox="0 0 26 24" fill="none" xmlns="http://www.w3.org/2000/svg">
<path fill-rule="evenodd" clip-rule="evenodd" d="M17.4412 1.32061C16.5769 1.24999 15.5015 1.25 14.1297 1.25H10.0626C8.6909 1.25 7.61547 1.24999 6.75112 1.32061C5.87098 1.39252 5.14387 1.54138 4.48574 1.87671C3.40381 2.42798 2.52417 3.30762 1.9729 4.38955C1.63756 5.04769 1.48871 5.7748 1.4168 6.65494C1.34618 7.51929 1.34618 8.59472 1.34618 9.96644V14.2283C1.34618 16.7256 3.3706 18.75 5.86784 18.75H6.4696C6.71809 18.75 6.88802 19.001 6.79573 19.2317C6.10907 20.9484 8.08609 22.5003 9.59059 21.4257L12.2013 19.5609L12.2504 19.5259C12.9593 19.0264 13.8041 18.7556 14.6713 18.7501L14.7316 18.75L15.4273 18.75C16.9759 18.7502 17.9205 18.7504 18.7141 18.5177C20.5933 17.9667 22.0629 16.4971 22.6139 14.6179C22.8466 13.8244 22.8464 12.8798 22.8462 11.3312L22.8462 9.96642C22.8462 8.59473 22.8462 7.51927 22.7756 6.65494C22.7037 5.77479 22.5548 5.04769 22.2195 4.38955C21.6682 3.30762 20.7886 2.42798 19.7066 1.87671C19.0485 1.54138 18.3214 1.39252 17.4412 1.32061ZM5.16672 3.21322C5.57815 3.00359 6.08589 2.87996 6.87327 2.81563C7.6694 2.75058 8.68368 2.75 10.0962 2.75H14.0962C15.5087 2.75 16.523 2.75058 17.3191 2.81563C18.1065 2.87996 18.6142 3.00359 19.0256 3.21322C19.8253 3.62068 20.4755 4.27085 20.883 5.07054C21.0926 5.48197 21.2162 5.9897 21.2806 6.77708C21.3456 7.57322 21.3462 8.58749 21.3462 10V11.1842C21.3462 12.9261 21.3385 13.6363 21.1745 14.1958C20.7672 15.5848 19.681 16.671 18.292 17.0783C17.7325 17.2424 17.0223 17.25 15.2804 17.25H14.7316L14.6617 17.2501C13.4884 17.2576 12.3455 17.6239 11.3864 18.2997L11.3295 18.3403L8.71873 20.2051C8.43327 20.409 8.05816 20.1145 8.18844 19.7888C8.67485 18.5728 7.77929 17.25 6.4696 17.25H5.86784C4.19903 17.25 2.84618 15.8972 2.84618 14.2283V10C2.84618 8.58749 2.84677 7.57322 2.91181 6.77708C2.97615 5.9897 3.09977 5.48197 3.30941 5.07054C3.71687 4.27085 4.36704 3.62068 5.16672 3.21322Z" fill="black"/>
<path d="M9.09618 10C9.09618 10.5523 8.64847 11 8.09618 11C7.5439 11 7.09618 10.5523 7.09618 10C7.09618 9.44772 7.5439 9 8.09618 9C8.64847 9 9.09618 9.44772 9.09618 10Z" fill="black"/>
<path d="M13.0962 10C13.0962 10.5523 12.6485 11 12.0962 11C11.5439 11 11.0962 10.5523 11.0962 10C11.0962 9.44772 11.5439 9 12.0962 9C12.6485 9 13.0962 9.44772 13.0962 10Z" fill="black"/>
<path d="M17.0962 10C17.0962 10.5523 16.6485 11 16.0962 11C15.5439 11 15.0962 10.5523 15.0962 10C15.0962 9.44772 15.5439 9 16.0962 9C16.6485 9 17.0962 9.44772 17.0962 10Z" fill="black"/>
</svg>
