<svg width="24" height="24" viewBox="0 0 24 24" fill="none" xmlns="http://www.w3.org/2000/svg">
<path fill-rule="evenodd" clip-rule="evenodd" d="M22.4689 7.36431C23.08 4.17771 20.2824 1.38009 17.0958 1.99123L7.94673 3.74587C5.95789 4.1273 4.36735 5.63275 3.86202 7.58892C2.85311 11.4945 6.47515 15.0639 10.3642 13.9203C10.4716 13.8887 10.5714 13.9885 10.5398 14.0959C9.39617 17.985 12.9656 21.607 16.8712 20.5981C18.8274 20.0928 20.3328 18.5022 20.7142 16.5134L22.4689 7.36431ZM17.3783 3.46438C19.5237 3.05294 21.4072 4.93642 20.9957 7.08178L19.2411 16.2308C18.9697 17.6457 17.8955 18.7843 16.496 19.1458C13.6989 19.8683 11.1695 17.2715 11.9789 14.519C12.3454 13.2727 11.1874 12.1147 9.94105 12.4812C7.18864 13.2906 4.59178 10.7612 5.31435 7.96409C5.67585 6.56466 6.81437 5.49038 8.22926 5.21903L17.3783 3.46438Z" fill="black"/>
<path d="M4.94454 16.3336C5.23744 16.0407 5.23744 15.5658 4.94454 15.2729C4.65165 14.98 4.17678 14.98 3.88388 15.2729L2.46967 16.6872C2.17678 16.98 2.17678 17.4549 2.46967 17.7478C2.76256 18.0407 3.23744 18.0407 3.53033 17.7478L4.94454 16.3336Z" fill="black"/>
<path d="M8.48008 17.0407C8.77297 16.7478 8.77297 16.2729 8.48008 15.98C8.18718 15.6872 7.71231 15.6872 7.41942 15.98L6.0052 17.3943C5.71231 17.6872 5.71231 18.162 6.0052 18.4549C6.2981 18.7478 6.77297 18.7478 7.06586 18.4549L8.48008 17.0407Z" fill="black"/>
<path d="M9.18718 20.5762C9.48008 20.2833 9.48008 19.8085 9.18718 19.5156C8.89429 19.2227 8.41942 19.2227 8.12652 19.5156L6.71231 20.9298C6.41942 21.2227 6.41942 21.6976 6.71231 21.9905C7.0052 22.2833 7.48008 22.2833 7.77297 21.9905L9.18718 20.5762Z" fill="black"/>
</svg>
