<svg width="9" height="18" viewBox="0 0 9 18" fill="none" xmlns="http://www.w3.org/2000/svg">
<path d="M8.26115 2.00769C8.72164 1.5513 8.72495 0.808025 8.26856 0.347543C7.81217 -0.112939 7.06889 -0.116256 6.60841 0.340136L3.79927 3.12433C2.74122 4.17293 1.87648 5.02996 1.26322 5.79359C0.625504 6.58766 0.16387 7.39366 0.0405533 8.36114C-0.0135178 8.78535 -0.0135177 9.21465 0.0405531 9.63886C0.16387 10.6063 0.625504 11.4123 1.26322 12.2064C1.87648 12.97 2.74121 13.8271 3.79925 14.8757L6.60841 17.6599C7.06889 18.1163 7.81217 18.1129 8.26856 17.6525C8.72495 17.192 8.72163 16.4487 8.26115 15.9923L5.50172 13.2574C4.38182 12.1474 3.61361 11.3835 3.0938 10.7363C2.58886 10.1075 2.41564 9.70369 2.36954 9.34201C2.34059 9.1149 2.34059 8.8851 2.36954 8.65799C2.41564 8.29631 2.58886 7.89245 3.0938 7.26371C3.61361 6.61645 4.38182 5.85256 5.50172 4.74261L8.26115 2.00769Z" fill="#141414"/>
</svg>
