<svg width="22" height="24" viewBox="0 0 22 24" fill="none" xmlns="http://www.w3.org/2000/svg">
<path fill-rule="evenodd" clip-rule="evenodd" d="M11.3164 8.59425C9.24528 8.59425 7.56635 10.2732 7.56635 12.3443C7.56635 14.4153 9.24528 16.0943 11.3164 16.0943C13.3874 16.0943 15.0664 14.4153 15.0664 12.3443C15.0664 10.2732 13.3874 8.59425 11.3164 8.59425ZM9.06635 12.3443C9.06635 11.1016 10.0737 10.0943 11.3164 10.0943C12.559 10.0943 13.5664 11.1016 13.5664 12.3443C13.5664 13.5869 12.559 14.5943 11.3164 14.5943C10.0737 14.5943 9.06635 13.5869 9.06635 12.3443Z" fill="#141414"/>
<path fill-rule="evenodd" clip-rule="evenodd" d="M14.7311 3.57654C13.7507 0.141154 8.88205 0.141155 7.90164 3.57654C7.59787 4.64094 6.50433 5.2723 5.43064 5.00317C1.96531 4.13454 -0.468994 8.35087 2.01593 10.9176C2.78584 11.7129 2.78584 12.9756 2.01593 13.7709C-0.468995 16.3376 1.96531 20.554 5.43064 19.6853C6.50433 19.4162 7.59787 20.0476 7.90164 21.112C8.88205 24.5474 13.7507 24.5474 14.7311 21.112C15.0348 20.0476 16.1284 19.4162 17.2021 19.6853C20.6674 20.554 23.1017 16.3376 20.6168 13.7709C19.8469 12.9756 19.8469 11.7129 20.6168 10.9176C23.1017 8.35087 20.6674 4.13454 17.2021 5.00317C16.1284 5.2723 15.0348 4.64094 14.7311 3.57654ZM9.34405 3.98818C9.91032 2.00394 12.7224 2.00394 13.2887 3.98818C13.8146 5.83102 15.7079 6.92411 17.5668 6.45815C19.5683 5.95644 20.9743 8.39175 19.5391 9.87428C18.2061 11.2512 18.2061 13.4373 19.5391 14.8142C20.9743 16.2968 19.5683 18.7321 17.5668 18.2304C15.7079 17.7644 13.8146 18.8575 13.2887 20.7003C12.7224 22.6846 9.91033 22.6846 9.34405 20.7003C8.81813 18.8575 6.92484 17.7644 5.06593 18.2304C3.06439 18.7321 1.65836 16.2968 3.09363 14.8142C4.42661 13.4373 4.42661 11.2512 3.09363 9.87428C1.65836 8.39175 3.06439 5.95644 5.06593 6.45815C6.92484 6.92411 8.81813 5.83102 9.34405 3.98818Z" fill="#141414"/>
<path fill-rule="evenodd" clip-rule="evenodd" d="M11.3164 8.59425C9.24528 8.59425 7.56635 10.2732 7.56635 12.3443C7.56635 14.4153 9.24528 16.0943 11.3164 16.0943C13.3874 16.0943 15.0664 14.4153 15.0664 12.3443C15.0664 10.2732 13.3874 8.59425 11.3164 8.59425ZM9.06635 12.3443C9.06635 11.1016 10.0737 10.0943 11.3164 10.0943C12.559 10.0943 13.5664 11.1016 13.5664 12.3443C13.5664 13.5869 12.559 14.5943 11.3164 14.5943C10.0737 14.5943 9.06635 13.5869 9.06635 12.3443Z" stroke="black" stroke-width="0.5"/>
<path fill-rule="evenodd" clip-rule="evenodd" d="M14.7311 3.57654C13.7507 0.141154 8.88205 0.141155 7.90164 3.57654C7.59787 4.64094 6.50433 5.2723 5.43064 5.00317C1.96531 4.13454 -0.468994 8.35087 2.01593 10.9176C2.78584 11.7129 2.78584 12.9756 2.01593 13.7709C-0.468995 16.3376 1.96531 20.554 5.43064 19.6853C6.50433 19.4162 7.59787 20.0476 7.90164 21.112C8.88205 24.5474 13.7507 24.5474 14.7311 21.112C15.0348 20.0476 16.1284 19.4162 17.2021 19.6853C20.6674 20.554 23.1017 16.3376 20.6168 13.7709C19.8469 12.9756 19.8469 11.7129 20.6168 10.9176C23.1017 8.35087 20.6674 4.13454 17.2021 5.00317C16.1284 5.2723 15.0348 4.64094 14.7311 3.57654ZM9.34405 3.98818C9.91032 2.00394 12.7224 2.00394 13.2887 3.98818C13.8146 5.83102 15.7079 6.92411 17.5668 6.45815C19.5683 5.95644 20.9743 8.39175 19.5391 9.87428C18.2061 11.2512 18.2061 13.4373 19.5391 14.8142C20.9743 16.2968 19.5683 18.7321 17.5668 18.2304C15.7079 17.7644 13.8146 18.8575 13.2887 20.7003C12.7224 22.6846 9.91033 22.6846 9.34405 20.7003C8.81813 18.8575 6.92484 17.7644 5.06593 18.2304C3.06439 18.7321 1.65836 16.2968 3.09363 14.8142C4.42661 13.4373 4.42661 11.2512 3.09363 9.87428C1.65836 8.39175 3.06439 5.95644 5.06593 6.45815C6.92484 6.92411 8.81813 5.83102 9.34405 3.98818Z" stroke="black" stroke-width="0.5"/>
</svg>
