<svg width="62" height="62" viewBox="0 0 62 62" fill="none" xmlns="http://www.w3.org/2000/svg">
<g filter="url(#filter0_d_139_1489)">
<circle cx="26" cy="26" r="16" fill="#009800"/>
</g>
<path fill-rule="evenodd" clip-rule="evenodd" d="M26 22.7764C23.8037 22.7764 22.0233 24.4371 22.0233 26.4858C22.0233 28.5345 23.8037 30.1953 26 30.1953C28.1963 30.1953 29.9767 28.5345 29.9767 26.4858C29.9767 24.4371 28.1963 22.7764 26 22.7764ZM23.2791 26.4858C23.2791 25.0841 24.4973 23.9478 26 23.9478C27.5027 23.9478 28.7209 25.0841 28.7209 26.4858C28.7209 27.8876 27.5027 29.0239 26 29.0239C24.4973 29.0239 23.2791 27.8876 23.2791 26.4858Z" fill="white"/>
<path fill-rule="evenodd" clip-rule="evenodd" d="M29.0559 18.0838C27.3131 16.6387 24.6869 16.6387 22.9441 18.0838L22.7634 18.2335C22.2677 18.6446 21.6274 18.8717 20.9641 18.8717C18.7748 18.8717 17 20.5272 17 22.5694V26.5212C17 27.9554 17 29.0796 17.1036 29.9716C17.2093 30.8818 17.4289 31.6193 17.9194 32.249C18.2163 32.6302 18.5757 32.9654 18.9844 33.2424C19.6594 33.6999 20.4501 33.9048 21.4259 34.0034C22.3821 34.1 23.5873 34.1 25.1248 34.1H26.8751C28.4126 34.1 29.6179 34.1 30.5741 34.0034C31.5499 33.9048 32.3406 33.6999 33.0156 33.2424C33.4243 32.9654 33.7837 32.6302 34.0806 32.249C34.5711 31.6193 34.7907 30.8818 34.8964 29.9716C35 29.0797 35 27.9554 35 26.5212V22.5694C35 20.5272 33.2252 18.8717 31.0359 18.8717C30.3726 18.8717 29.7323 18.6446 29.2366 18.2335L29.0559 18.0838ZM23.7784 18.9593C25.0454 17.9088 26.9546 17.9088 28.2216 18.9593L28.4022 19.1091C29.1279 19.7107 30.065 20.0431 31.0359 20.0431C32.5316 20.0431 33.7442 21.1741 33.7442 22.5694V26.4858C33.7442 27.963 33.7433 29.0239 33.6479 29.8454C33.5538 30.6559 33.3736 31.1637 33.0646 31.5604C32.8452 31.8422 32.5795 32.09 32.2775 32.2947C31.8522 32.583 31.3078 32.751 30.4388 32.8388C29.5581 32.9278 28.4209 32.9286 26.8372 32.9286H25.1628C23.5791 32.9286 22.4419 32.9278 21.5612 32.8388C20.6922 32.751 20.1478 32.583 19.7225 32.2947C19.4205 32.09 19.1548 31.8422 18.9354 31.5604C18.6264 31.1637 18.4462 30.6559 18.3521 29.8454C18.2567 29.0239 18.2558 27.963 18.2558 26.4858V22.5694C18.2558 21.1741 19.4684 20.0431 20.9641 20.0431C21.935 20.0431 22.8721 19.7107 23.5978 19.1091L23.7784 18.9593Z" fill="white"/>
<path d="M30.186 22.5812C30.186 23.0125 30.5609 23.3621 31.0233 23.3621C31.4856 23.3621 31.8605 23.0125 31.8605 22.5812C31.8605 22.1499 31.4856 21.8002 31.0233 21.8002C30.5609 21.8002 30.186 22.1499 30.186 22.5812Z" fill="white"/>
<defs>
<filter id="filter0_d_139_1489" x="0" y="0" width="62" height="62" filterUnits="userSpaceOnUse" color-interpolation-filters="sRGB">
<feFlood flood-opacity="0" result="BackgroundImageFix"/>
<feColorMatrix in="SourceAlpha" type="matrix" values="0 0 0 0 0 0 0 0 0 0 0 0 0 0 0 0 0 0 127 0" result="hardAlpha"/>
<feOffset dx="5" dy="5"/>
<feGaussianBlur stdDeviation="7.5"/>
<feComposite in2="hardAlpha" operator="out"/>
<feColorMatrix type="matrix" values="0 0 0 0 0 0 0 0 0 0 0 0 0 0 0 0 0 0 0.1 0"/>
<feBlend mode="normal" in2="BackgroundImageFix" result="effect1_dropShadow_139_1489"/>
<feBlend mode="normal" in="SourceGraphic" in2="effect1_dropShadow_139_1489" result="shape"/>
</filter>
</defs>
</svg>
